<?xml version="1.0" standalone="no"?><!DOCTYPE svg PUBLIC "-//W3C//DTD SVG 1.1//EN" "http://www.w3.org/Graphics/SVG/1.1/DTD/svg11.dtd"><svg t="1570543367146" class="icon" viewBox="0 0 1024 1024" version="1.1" xmlns="http://www.w3.org/2000/svg" p-id="1145" xmlns:xlink="http://www.w3.org/1999/xlink" width="200" height="200"><defs><style type="text/css"></style></defs><path d="M515 511.8m-445 0a445 445 0 1 0 890 0 445 445 0 1 0-890 0Z" fill="#F2EFDC" p-id="1146"></path><path d="M960 516.4c0 251.6-204 440.4-428.3 440.4h-40.8L287 747.1c-37.6-43.2 0-21 0-21l-61.2-167.8V411.5L287 306.7l81.6-83.9 163.2-41.9h20.4l81.6 41.9 122.4 62.9 204 209.7v21h-0.2z" fill="#DDDAC9" p-id="1147"></path><path d="M527.4 183.8C352 183.8 209.8 337 209.8 525.9S352.1 868 527.4 868 845 714.8 845 525.9 702.8 183.8 527.4 183.8z m-102.1 39.9h121V205c-5-2.7-10.1-2.7-20.2-2.7h20.2v2.7c5 2.7 10.1 8 20.1 18.7 0 0 20.2 0 40.3 21.4h40.4c10.1 0 20.2 0 27.7 5.4 7.6 0 12.7 5.3 12.7 16 0 7.4 0 14.9 0.9 21.4h19.2c20.2 21.4 40.3 21.4 40.3 42.8h0.1c20.1 0 20.1 0 20.1 21.4 20.2 21.4 0 21.4 0 0S748 330.7 748 330.7h-0.1c-20.1-0.1-20.1-21.4-40.2-21.4-13.1 0-17.7-9.1-19.3-21.4h-1c0-21.4-5-32.1-12.6-37.4-7.6 0-17.6 5.4-27.6 16v21.4H627c0-42.8-20.2-42.8-40.3-42.8h-20.2c-20.2-21.4-40.3-21.4-80.7-21.4-20.2 0-40.3 0-60.5 21.4v-21.4z m-141.1 107c40.3-42.8 60.5-42.8 100.8-64.2h40.3c9.1 0 18.2 0 27.1 0.5 3.4-0.5 7.5-0.5 13.3-0.5 0.6 0.7 1.3 1.3 1.9 1.9 24.3 3.5 45.6 13.3 58.6 40.9-19.6-20.7-39-21.4-58.6-40.9-4.9-0.7-10-1.2-15.2-1.5-8.6 1.2-12.7 5.6-27 20.9-20.1 21.4-40.3 21.4-80.7 42.8-20.2 21.4-20.2 21.4-20.2 42.8h-20.2c20.2-42.8 20.2-42.8 40.3-42.8 20.2-21.4 40.3-42.8 60.5-42.8 20.2-21.4 20.2-21.4 0-21.4-60.5 21.4-60.5 21.4-100.8 64.2-20.2 21.4-20.2 21.4-40.3 42.8 0-21.3 20.2-42.7 20.2-42.7zM385 352.1c60.5 0 60.5 42.8 20.2 64.2 40.3-21.5 20.1-64.2-20.2-64.2z m0 106.9v-21.4h20.2V501.8H425.3c-20.2 21.4-20.2 0-40.3 0-20.2-21.4-60.5-42.8-80.7-64.2 20.2 21.4 40.3 21.4 60.5 21.4 20.2 21.4 20.2 21.4 20.2 0z m0 149.8s-0.1 0.1-20.2 21.4c-20.2 0-20.2 0-20.2 21.4-20.2 42.8-20.2 21.4-40.3 42.8 0-42.8 20.2-21.4 20.2-42.8 20.2-21.4 20.2-21.4 40.3-42.8H385z m40.4 64.2c-20.2 0-20.2 0-20.2-21.4 0 0 18.6-19.8 20.1-40.3v-2.5-0.1c-1.5-1.6-20.1-22.1-20.1-42.7v-21.4C385 544.6 385 566 385 566v21.4c0-21.4 0-21.4-20.2-21.4-40.3 21.4-40.3 21.4-60.5 0-20.2 0-40.3-21.4-40.3 0s-20.2 0-20.2 0c20.2-21.4 40.3-21.4 60.5 0h60.5c20.2 0 20.2 0 20.2-21.4 20.2-21.4 20.2-21.4 40.3-21.4H460c-9.2-20.5-14.5-42.3-14.5-64.2 0-85.6 80.7-149.7 161.3-149.7 80.7 0 161.3 64.2 161.3 149.8s-80.7 171.2-161.3 171.2c-56 0-112.1-41.4-141.1-95.5v9.8h-40.4v64.1l0.1 0.1c0 0.8 0 1.7-0.1 2.5v40.3c0 21.4 0 21.4 20.2 21.4v21.4h20.2c0 21.4 20.2 42.8 20.2 64.2h-20.2v-42.8c-20.2-21.4-40.3-21.4-40.3-42.8z m120.9 21.4s0 21.4-20.2 0c0-21.4-20.2-21.4-40.3-21.4 20.1 0 40.3 0 60.5 21.4z m262.2-192.6c-19.8 0-20.2 0-20.2 20.2 0.1 0.8 0.1 1.2 0.1 1.2l-0.1 0.1V566c-20.2 21.4-20.2 21.4 0 21.4 0 21.4 0 21.4 20.2 21.4 0 0 0 21.4-20.2 42.8v42.8s-20.2 0-20.2 21.4v-21.4V673l20.2-21.4v-21.4c20.2-21.4 0-21.4 0-21.4h-20.2v-21.4C748 608.8 748 608.8 748 630.2h-20.2v21.4c20.2 21.4 0 64.2 0 85.6-20.2 21.4-20.2 21.4-40.3 42.8 0 21.4-20.2 0-20.2 0 20.2-21.4 20.2-21.4 40.3-42.8 0-21.4 20.2-42.8 20.2-64.2 0 0-20.2-21.4-20.2 0s-20.2 21.4-20.2 21.4c-20.2 21.4-40.3 42.8-60.5 64.2-20.2 42.8-40.3 64.2-80.7 85.6h-80.7v-21.4h80.7c40.4 0 40.3-21.4 80.7-64.2h-20.2-40.3c-20.1 0-20.2 0-40.3 21.4-20.2 0-20.2-21.4-20.2-21.4h60.5c20.2-21.4 40.3-21.4 40.3-21.4H647c0-21.4 0-21.4-20.2-21.4-40.3 0-40.3 0-20.2-21.4 20.2 0 20.2-21.4 0-21.4h-20.2c-20.2-21.4-40.3-21.4-40.3-21.4-20.2 0 0-21.4 0-21.4 0 21.4 20.2 21.4 40.3 21.4 0 0 20.2 0 20.2 21.4 20.2 0 40.3 0 20.2 21.4s-20.2 21.4 0 21.4H647c20.2-21.4 40.3-21.4 40.3-42.8 20.2-21.4 20.2-21.4 20.2-42.8v-21.4h0.1l20.2 21.4C748 608.8 748 587.4 748 566c20.2 0 20.2 0 20.2-21.4l20.1-21.3v-0.1-1.2c-0.4-4.5-2.9-20.2-20.2-20.2h40.4c40.3 0 20.2 21.4 20.2 42.8v-21.4s0-21.4-20.2-21.4z" fill="#93C6D7" p-id="1148"></path><path d="M535 464.6a93 80.4 0 1 0 186 0 93 80.4 0 1 0-186 0Z" fill="#93C6D7" p-id="1149"></path><path d="M616.3 416.3a22.4 16.3 0 1 0 44.8 0 22.4 16.3 0 1 0-44.8 0Z" fill="#DDDAC9" p-id="1150"></path></svg>